<?xml version="1.0" encoding="UTF-8" standalone="no"?>
<!-- Created with Inkscape (http://www.inkscape.org/) -->

<svg
   version="1.1"
   id="svg2"
   width="339.98917"
   height="282.89465"
   viewBox="0 0 339.98916 282.89465"
   sodipodi:docname="vac-double.svg"
   inkscape:version="1.2.1 (9c6d41e410, 2022-07-14)"
   inkscape:export-filename="vac-double.pdf"
   inkscape:export-xdpi="96"
   inkscape:export-ydpi="96"
   xmlns:inkscape="http://www.inkscape.org/namespaces/inkscape"
   xmlns:sodipodi="http://sodipodi.sourceforge.net/DTD/sodipodi-0.dtd"
   xmlns="http://www.w3.org/2000/svg"
   xmlns:svg="http://www.w3.org/2000/svg">
  <defs
     id="defs6">
    <clipPath
       clipPathUnits="userSpaceOnUse"
       id="clipPath18">
      <path
         d="M 0,0 H 464.29114 V 386.26456 H 0 Z"
         id="path16" />
    </clipPath>
    <clipPath
       clipPathUnits="userSpaceOnUse"
       id="clipPath198">
      <path
         d="M 0,0 H 488.83557 V 199.81735 H 0 Z"
         id="path196" />
    </clipPath>
  </defs>
  <sodipodi:namedview
     id="namedview4"
     pagecolor="#ffffff"
     bordercolor="#111111"
     borderopacity="1"
     inkscape:showpageshadow="0"
     inkscape:pageopacity="0"
     inkscape:pagecheckerboard="1"
     inkscape:deskcolor="#d1d1d1"
     showgrid="false"
     inkscape:zoom="2.3786081"
     inkscape:cx="157.23481"
     inkscape:cy="147.35509"
     inkscape:window-width="2560"
     inkscape:window-height="1379"
     inkscape:window-x="1920"
     inkscape:window-y="32"
     inkscape:window-maximized="1"
     inkscape:current-layer="g8" />
  <g
     id="g8"
     inkscape:groupmode="layer"
     inkscape:label="Dvojna_sonda"
     transform="matrix(1.3333333,0,0,-1.3333333,0,282.89946)">
    <g
       id="g10"
       transform="scale(0.54951)">
      <g
         id="g12">
        <g
           id="g14" />
        <g
           id="g106">
          <g
             clip-path="url(#clipPath18)"
             id="g104">
            <g
               id="g102">
              <g
                 transform="matrix(1,0,0,-1,0,386.26456)"
                 id="g22">
                <path
                   d="M 226.066,2.484 V 386.258"
                   style="fill:none;stroke:#000000;stroke-width:1.6;stroke-linecap:butt;stroke-linejoin:miter;stroke-miterlimit:4;stroke-dasharray:none;stroke-opacity:1"
                   id="path20" />
              </g>
              <path
                 d="m 222.195,375.409 3.856,10.492 3.855,-10.492 c -2.277,1.676 -5.39,1.668 -7.711,0 z"
                 style="fill:#000000;fill-opacity:1;fill-rule:evenodd;stroke:none"
                 id="path24" />
              <g
                 transform="matrix(1,0,0,-1,0,386.26456)"
                 id="g28">
                <path
                   d="M 460.914,205.055 H 0"
                   style="fill:none;stroke:#000000;stroke-width:1.6;stroke-linecap:butt;stroke-linejoin:miter;stroke-miterlimit:4;stroke-dasharray:none;stroke-opacity:1"
                   id="path26" />
              </g>
              <path
                 d="m 452.543,185.085 10.488,-3.86 -10.488,-3.855 c 1.676,2.277 1.668,5.391 0,7.715 z"
                 style="fill:#000000;fill-opacity:1;fill-rule:evenodd;stroke:none"
                 id="path30" />
              <g
                 transform="matrix(1,0,0,-1,0,386.26456)"
                 id="g34">
                <path
                   d="M 134.625,361.176 H 6.461"
                   style="fill:none;stroke:#ff0000;stroke-width:3.2;stroke-linecap:butt;stroke-linejoin:miter;stroke-miterlimit:4;stroke-dasharray:none;stroke-opacity:1"
                   id="path32" />
              </g>
              <g
                 transform="matrix(1,0,0,-1,0,386.26456)"
                 id="g38">
                <path
                   d="m 285.777,114.07 v 245.188 m 19.203,3.199 H 135.945"
                   style="fill:none;stroke:#000000;stroke-width:0.8;stroke-linecap:butt;stroke-linejoin:miter;stroke-miterlimit:4;stroke-dasharray:3.2, 3.2;stroke-dashoffset:0;stroke-opacity:1"
                   id="path36" />
              </g>
              <g
                 transform="matrix(0,-1,-1,0,0,386.26456)"
                 id="g42">
                <path
                   d="m 122.07,-285.777 3.2,-3.203 -11.2,3.203 11.2,3.199 z"
                   style="fill:#000000;fill-opacity:1;fill-rule:evenodd;stroke:#000000;stroke-width:0.8;stroke-linecap:butt;stroke-linejoin:miter;stroke-miterlimit:4;stroke-dasharray:none;stroke-opacity:1"
                   id="path40" />
              </g>
              <path
                 d="m 390.281,274.823 h 1.703 l -0.422,-2.156 h -1.703 z m -0.781,-4.047 h 1.703 l -2.031,-10.39 h -1.703 z"
                 style="fill:#000000;fill-opacity:1;fill-rule:nonzero;stroke:none"
                 id="path44" />
              <path
                 d="m 394.293,257.53 v -3.484 h -1.078 v 9.062 h 1.078 v -1 c 0.227,0.395 0.516,0.688 0.859,0.875 0.34,0.184 0.754,0.282 1.235,0.282 0.801,0 1.453,-0.321 1.953,-0.954 0.496,-0.625 0.75,-1.457 0.75,-2.484 0,-1.031 -0.254,-1.867 -0.75,-2.5 -0.5,-0.637 -1.152,-0.953 -1.953,-0.953 -0.481,0 -0.895,0.098 -1.235,0.281 -0.343,0.195 -0.632,0.488 -0.859,0.875 z m 3.672,2.297 c 0,0.789 -0.168,1.41 -0.5,1.859 -0.324,0.446 -0.77,0.672 -1.328,0.672 -0.575,0 -1.028,-0.226 -1.36,-0.672 -0.324,-0.449 -0.484,-1.07 -0.484,-1.859 0,-0.793 0.16,-1.418 0.484,-1.875 0.332,-0.449 0.785,-0.672 1.36,-0.672 0.558,0 1.004,0.223 1.328,0.672 0.332,0.457 0.5,1.082 0.5,1.875 z m 3.562,-2.281 h 1.938 v 6.672 l -2.11,-0.422 v 1.078 l 2.094,0.422 h 1.188 v -7.75 h 1.937 v -1 h -5.047 z"
                 style="fill:#000000;fill-opacity:1;fill-rule:nonzero;stroke:none"
                 id="path46" />
              <path
                 d="m 448.301,145.78 -2.438,13.844 h 1.844 l 2,-11.906 6.734,11.906 h 2.047 l -8.015,-13.844 z"
                 style="fill:#000000;fill-opacity:1;fill-rule:nonzero;stroke:none"
                 id="path48" />
              <path
                 d="m 462.957,147.503 v 3.562 h 1.078 v -9.125 h -1.078 v 0.985 c -0.23,-0.387 -0.519,-0.68 -0.859,-0.875 -0.344,-0.184 -0.762,-0.282 -1.25,-0.282 -0.793,0 -1.442,0.317 -1.938,0.954 -0.5,0.632 -0.75,1.468 -0.75,2.5 0,1.027 0.25,1.859 0.75,2.484 0.496,0.633 1.145,0.953 1.938,0.953 0.488,0 0.906,-0.098 1.25,-0.281 0.34,-0.188 0.629,-0.481 0.859,-0.875 z m -3.672,-2.281 c 0,-0.793 0.16,-1.418 0.485,-1.875 0.32,-0.45 0.769,-0.672 1.343,-0.672 0.571,0 1.02,0.222 1.344,0.672 0.332,0.457 0.5,1.082 0.5,1.875 0,0.789 -0.168,1.41 -0.5,1.859 -0.324,0.445 -0.773,0.672 -1.344,0.672 -0.574,0 -1.023,-0.227 -1.343,-0.672 -0.325,-0.449 -0.485,-1.07 -0.485,-1.859 z"
                 style="fill:#000000;fill-opacity:1;fill-rule:nonzero;stroke:none"
                 id="path50" />
              <path
                 d="m 198.684,386.116 h 1.703 l -0.422,-2.156 h -1.703 z m -0.782,-4.047 h 1.703 l -2.031,-10.39 h -1.703 z"
                 style="fill:#000000;fill-opacity:1;fill-rule:nonzero;stroke:none"
                 id="path52" />
              <path
                 d="m 205.977,373.401 v 3.563 h 1.078 v -9.125 h -1.078 v 0.984 c -0.231,-0.387 -0.52,-0.68 -0.86,-0.875 -0.344,-0.183 -0.762,-0.281 -1.25,-0.281 -0.793,0 -1.441,0.316 -1.937,0.953 -0.5,0.633 -0.75,1.469 -0.75,2.5 0,1.027 0.25,1.859 0.75,2.484 0.496,0.633 1.144,0.954 1.937,0.954 0.488,0 0.906,-0.098 1.25,-0.282 0.34,-0.187 0.629,-0.48 0.86,-0.875 z m -3.672,-2.281 c 0,-0.793 0.16,-1.418 0.484,-1.875 0.32,-0.449 0.77,-0.672 1.344,-0.672 0.57,0 1.019,0.223 1.344,0.672 0.332,0.457 0.5,1.082 0.5,1.875 0,0.789 -0.168,1.41 -0.5,1.859 -0.325,0.446 -0.774,0.672 -1.344,0.672 -0.574,0 -1.024,-0.226 -1.344,-0.672 -0.324,-0.449 -0.484,-1.07 -0.484,-1.859 z"
                 style="fill:#000000;fill-opacity:1;fill-rule:nonzero;stroke:none"
                 id="path54" />
              <g
                 transform="matrix(1,0,0,-1,0,386.26456)"
                 id="g58">
                <path
                   d="M 376.09,202.688 V 46.875"
                   style="fill:none;stroke:#000000;stroke-width:0.8;stroke-linecap:butt;stroke-linejoin:miter;stroke-miterlimit:4;stroke-dasharray:2.4, 2.4;stroke-dashoffset:0;stroke-opacity:1"
                   id="path56" />
              </g>
              <path
                 d="m 372.543,330.839 3.535,9.613 3.535,-9.613 c -2.086,1.535 -4.941,1.527 -7.07,0 z"
                 style="fill:#000000;fill-opacity:1;fill-rule:evenodd;stroke:none"
                 id="path60" />
              <path
                 d="m 209.285,208.143 h 2.125 l 2.563,-13.843 h -1.953 l -0.579,3.547 h -6.234 l -1.953,-3.547 h -1.984 z m 0.672,-1.843 -3.891,-6.891 h 5.094 z"
                 style="fill:#000000;fill-opacity:1;fill-rule:nonzero;stroke:none"
                 id="path62" />
              <g
                 transform="matrix(1,0,0,-1,0,386.26456)"
                 id="g66">
                <path
                   d="M 322.609,41.438 134.207,361.578"
                   style="fill:none;stroke:#ff0000;stroke-width:3.2;stroke-linecap:butt;stroke-linejoin:miter;stroke-miterlimit:4;stroke-dasharray:none;stroke-opacity:1"
                   id="path64" />
              </g>
              <g
                 transform="matrix(1,0,0,-1,0,386.26456)"
                 id="g70">
                <path
                   d="M 448.484,42.008 H 321.922"
                   style="fill:none;stroke:#ff0000;stroke-width:3.2;stroke-linecap:butt;stroke-linejoin:miter;stroke-miterlimit:4;stroke-dasharray:none;stroke-opacity:1"
                   id="path68" />
              </g>
              <path
                 d="m 168.875,66.015 h 4.797 c 1.301,0 2.269,-0.243 2.906,-0.719 0.645,-0.481 0.969,-1.207 0.969,-2.172 0,-0.899 -0.277,-1.668 -0.828,-2.313 -0.555,-0.648 -1.278,-1.039 -2.172,-1.171 0.758,-0.18 1.332,-0.512 1.719,-1 0.382,-0.481 0.578,-1.133 0.578,-1.954 0,-1.386 -0.52,-2.488 -1.547,-3.296 -1.031,-0.813 -2.442,-1.219 -4.219,-1.219 h -4.89 z m 0.469,-7.235 -0.985,-5.062 h 3.016 c 1.121,0 1.992,0.254 2.609,0.765 0.614,0.52 0.922,1.254 0.922,2.203 0,0.727 -0.207,1.258 -0.609,1.594 -0.406,0.332 -1.059,0.5 -1.953,0.5 z m 1.094,5.703 -0.813,-4.172 h 2.797 c 0.988,0 1.766,0.211 2.328,0.641 0.559,0.434 0.844,1.035 0.844,1.797 0,0.601 -0.196,1.039 -0.578,1.312 -0.375,0.278 -0.977,0.422 -1.797,0.422 z"
                 style="fill:#000000;fill-opacity:1;fill-rule:nonzero;stroke:none"
                 id="path72" />
              <g
                 transform="matrix(1,0,0,-1,0,386.26456)"
                 id="g76">
                <path
                   d="m 164.441,314.16 c 0,1.785 -1.359,3.231 -3.031,3.231 -1.676,0 -3.031,-1.446 -3.031,-3.231 0,-1.785 1.355,-3.234 3.031,-3.234 1.672,0 3.031,1.449 3.031,3.234 z"
                   style="fill:#ff0000;fill-opacity:1;fill-rule:nonzero;stroke:#ff0000;stroke-width:3.2;stroke-linecap:butt;stroke-linejoin:miter;stroke-miterlimit:4;stroke-dasharray:none;stroke-opacity:1"
                   id="path74" />
              </g>
              <path
                 d="m 317.258,369.206 h 1.89 l 2.375,-5 4.297,5 h 2.188 l -5.703,-6.609 3.437,-7.235 h -1.875 l -2.797,5.828 -5.062,-5.828 h -2.172 l 6.469,7.453 z"
                 style="fill:#000000;fill-opacity:1;fill-rule:nonzero;stroke:none"
                 id="path78" />
              <path
                 d="m 444.977,371.893 h 2 l 2.593,-5.687 4.938,5.687 h 2.109 l -6.281,-7.25 -1.281,-6.593 h -1.875 l 1.265,6.593 z"
                 style="fill:#000000;fill-opacity:1;fill-rule:nonzero;stroke:none"
                 id="path80" />
              <g
                 transform="matrix(1,0,0,-1,0,386.26456)"
                 id="g84">
                <path
                   d="m 64.031,360.625 c 0,1.785 -1.355,3.234 -3.031,3.234 -1.672,0 -3.031,-1.449 -3.031,-3.234 0,-1.785 1.359,-3.23 3.031,-3.23 1.676,0 3.031,1.445 3.031,3.23 z"
                   style="fill:#ff0000;fill-opacity:1;fill-rule:nonzero;stroke:#ff0000;stroke-width:3.2;stroke-linecap:butt;stroke-linejoin:miter;stroke-miterlimit:4;stroke-dasharray:none;stroke-opacity:1"
                   id="path82" />
              </g>
              <path
                 d="m 67.914,50.475 -0.375,-1.968 c -0.594,0.59 -1.227,1.035 -1.891,1.328 -0.668,0.289 -1.386,0.437 -2.156,0.437 -1.062,0 -1.996,-0.257 -2.797,-0.765 -0.804,-0.5 -1.492,-1.274 -2.062,-2.313 -0.375,-0.668 -0.664,-1.379 -0.86,-2.125 -0.187,-0.742 -0.281,-1.492 -0.281,-2.25 0,-1.261 0.32,-2.226 0.969,-2.89 0.652,-0.657 1.601,-0.985 2.844,-0.985 0.863,0 1.691,0.133 2.484,0.406 0.789,0.278 1.563,0.696 2.313,1.25 l -0.438,-2.218 c -0.742,-0.313 -1.488,-0.551 -2.234,-0.703 -0.75,-0.164 -1.508,-0.25 -2.266,-0.25 -1.773,0 -3.16,0.476 -4.156,1.437 -1,0.965 -1.5,2.313 -1.5,4.031 0,1.102 0.187,2.188 0.562,3.25 0.383,1.059 0.93,2.032 1.641,2.907 0.758,0.933 1.625,1.629 2.594,2.078 0.965,0.445 2.093,0.672 3.375,0.672 0.789,0 1.539,-0.118 2.25,-0.344 0.707,-0.219 1.367,-0.551 1.984,-0.985 z"
                 style="fill:#000000;fill-opacity:1;fill-rule:nonzero;stroke:none"
                 id="path86" />
              <g
                 transform="matrix(1,0,0,-1,0,386.26456)"
                 id="g90">
                <path
                   d="M 92.531,208.832 V 358.246"
                   style="fill:none;stroke:#000000;stroke-width:0.8;stroke-linecap:butt;stroke-linejoin:miter;stroke-miterlimit:4;stroke-dasharray:2.4, 2.4;stroke-dashoffset:0;stroke-opacity:1"
                   id="path88" />
              </g>
              <path
                 d="m 96.082,36.569 -3.535,-9.613 -3.535,9.613 c 2.086,-1.535 4.941,-1.527 7.07,0 z"
                 style="fill:#000000;fill-opacity:1;fill-rule:evenodd;stroke:none"
                 id="path92" />
              <path
                 d="m 104.555,120.917 h 1.703 l -0.422,-2.156 h -1.703 z m -0.782,-4.047 h 1.704 l -2.032,-10.391 h -1.703 z"
                 style="fill:#000000;fill-opacity:1;fill-rule:nonzero;stroke:none"
                 id="path94" />
              <path
                 d="m 108.566,103.624 v -3.484 h -1.078 v 9.062 h 1.078 v -1 c 0.227,0.395 0.516,0.688 0.86,0.875 0.34,0.184 0.754,0.281 1.234,0.281 0.801,0 1.453,-0.32 1.953,-0.953 0.496,-0.625 0.75,-1.457 0.75,-2.484 0,-1.031 -0.254,-1.867 -0.75,-2.5 -0.5,-0.637 -1.152,-0.953 -1.953,-0.953 -0.48,0 -0.894,0.097 -1.234,0.281 -0.344,0.195 -0.633,0.488 -0.86,0.875 z m 3.672,2.297 c 0,0.789 -0.168,1.41 -0.5,1.859 -0.324,0.445 -0.769,0.672 -1.328,0.672 -0.574,0 -1.027,-0.227 -1.359,-0.672 -0.324,-0.449 -0.485,-1.07 -0.485,-1.859 0,-0.793 0.161,-1.418 0.485,-1.875 0.332,-0.449 0.785,-0.672 1.359,-0.672 0.559,0 1.004,0.223 1.328,0.672 0.332,0.457 0.5,1.082 0.5,1.875 z m 4.375,-2.281 h 4.141 v -1 h -5.563 v 1 c 0.446,0.457 1.055,1.078 1.829,1.859 0.777,0.789 1.269,1.301 1.468,1.531 0.383,0.414 0.649,0.77 0.797,1.063 0.153,0.3 0.235,0.593 0.235,0.875 0,0.465 -0.168,0.847 -0.5,1.14 -0.325,0.289 -0.747,0.438 -1.266,0.438 -0.375,0 -0.774,-0.067 -1.188,-0.188 -0.406,-0.125 -0.847,-0.324 -1.312,-0.593 v 1.203 c 0.476,0.183 0.922,0.328 1.328,0.422 0.414,0.101 0.797,0.156 1.141,0.156 0.902,0 1.629,-0.231 2.172,-0.688 0.539,-0.449 0.812,-1.054 0.812,-1.812 0,-0.356 -0.07,-0.696 -0.203,-1.016 -0.137,-0.324 -0.383,-0.707 -0.734,-1.14 -0.106,-0.118 -0.418,-0.446 -0.938,-0.985 -0.523,-0.543 -1.262,-1.301 -2.219,-2.265 z"
                 style="fill:#000000;fill-opacity:1;fill-rule:nonzero;stroke:none"
                 id="path96" />
              <path
                 d="m 300.262,147.89 h 1.703 l -0.422,-2.157 h -1.703 z m -0.782,-4.047 h 1.704 l -2.032,-10.391 h -1.703 z"
                 style="fill:#000000;fill-opacity:1;fill-rule:nonzero;stroke:none"
                 id="path98" />
              <path
                 d="m 308.852,133.159 v -0.516 h -4.969 c 0.051,-0.75 0.273,-1.32 0.672,-1.703 0.402,-0.386 0.961,-0.578 1.672,-0.578 0.414,0 0.816,0.047 1.203,0.141 0.394,0.101 0.785,0.258 1.172,0.469 v -1.032 c -0.399,-0.156 -0.801,-0.277 -1.204,-0.359 -0.406,-0.09 -0.82,-0.141 -1.234,-0.141 -1.043,0 -1.871,0.301 -2.484,0.907 -0.618,0.613 -0.922,1.441 -0.922,2.484 0,1.07 0.289,1.922 0.875,2.547 0.582,0.633 1.363,0.953 2.344,0.953 0.882,0 1.582,-0.289 2.093,-0.859 0.52,-0.563 0.782,-1.336 0.782,-2.313 z m -1.079,0.328 c -0.011,0.582 -0.179,1.051 -0.5,1.406 -0.324,0.352 -0.753,0.532 -1.281,0.532 -0.605,0 -1.09,-0.176 -1.453,-0.516 -0.355,-0.344 -0.559,-0.824 -0.609,-1.437 z m 4.301,-2.875 h 4.141 v -1 h -5.563 v 1 c 0.446,0.457 1.055,1.078 1.828,1.86 0.778,0.789 1.27,1.3 1.469,1.531 0.383,0.414 0.649,0.769 0.797,1.062 0.152,0.301 0.234,0.594 0.234,0.875 0,0.465 -0.168,0.848 -0.5,1.141 -0.324,0.289 -0.746,0.437 -1.265,0.437 -0.375,0 -0.774,-0.066 -1.188,-0.187 -0.406,-0.125 -0.847,-0.324 -1.312,-0.594 v 1.203 c 0.476,0.184 0.922,0.328 1.328,0.422 0.414,0.102 0.797,0.156 1.141,0.156 0.902,0 1.628,-0.23 2.171,-0.687 0.54,-0.449 0.813,-1.055 0.813,-1.813 0,-0.355 -0.07,-0.695 -0.203,-1.015 -0.137,-0.324 -0.383,-0.707 -0.735,-1.141 -0.105,-0.117 -0.418,-0.445 -0.937,-0.984 -0.523,-0.543 -1.262,-1.301 -2.219,-2.266 z"
                 style="fill:#000000;fill-opacity:1;fill-rule:nonzero;stroke:none"
                 id="path100" />
            </g>
          </g>
        </g>
      </g>
    </g>
  </g>
</svg>
