<?xml version="1.0" encoding="UTF-8" standalone="no"?>
<!-- Created with Inkscape (http://www.inkscape.org/) -->

<svg
   width="69.888908mm"
   height="58.208439mm"
   viewBox="0 0 69.888908 58.208439"
   version="1.1"
   id="svg6086"
   inkscape:version="1.2 (dc2aedaf03, 2022-05-15)"
   sodipodi:docname="vac-simple.svg"
   xmlns:inkscape="http://www.inkscape.org/namespaces/inkscape"
   xmlns:sodipodi="http://sodipodi.sourceforge.net/DTD/sodipodi-0.dtd"
   xmlns="http://www.w3.org/2000/svg"
   xmlns:svg="http://www.w3.org/2000/svg">
  <sodipodi:namedview
     id="namedview6088"
     pagecolor="#ffffff"
     bordercolor="#111111"
     borderopacity="1"
     inkscape:showpageshadow="0"
     inkscape:pageopacity="0"
     inkscape:pagecheckerboard="1"
     inkscape:deskcolor="#d1d1d1"
     inkscape:document-units="mm"
     showgrid="false"
     inkscape:zoom="3.3638608"
     inkscape:cx="163.79988"
     inkscape:cy="103.30392"
     inkscape:window-width="2560"
     inkscape:window-height="1379"
     inkscape:window-x="1920"
     inkscape:window-y="32"
     inkscape:window-maximized="1"
     inkscape:current-layer="layer1" />
  <defs
     id="defs6083">
    <clipPath
       clipPathUnits="userSpaceOnUse"
       id="clipPath772">
      <path
         d="M 0,0 H 273.62912 V 227.8251 H 0 Z"
         id="path770" />
    </clipPath>
    <clipPath
       clipPathUnits="userSpaceOnUse"
       id="clipPath776">
      <path
         d="M 0,227.825 H 273.629 V 0 H 0 Z"
         id="path774" />
    </clipPath>
  </defs>
  <g
     inkscape:label="Layer 1"
     inkscape:groupmode="layer"
     id="layer1"
     transform="translate(-94.678426,-119.39578)">
    <g
       id="g764"
       transform="matrix(0.25583091,0,0,-0.25583091,94.640563,177.60448)">
      <g
         id="g766">
        <g
           id="g768" />
        <g
           id="g880">
          <g
             clip-path="url(#clipPath772)"
             id="g878">
            <g
               id="g876">
              <g
                 clip-path="url(#clipPath776)"
                 id="g874">
                <g
                   transform="translate(149.395,225.4111)"
                   id="g780">
                  <path
                     d="M 0,0 V -212.609"
                     style="fill:none;stroke:#000000;stroke-width:1.6;stroke-linecap:butt;stroke-linejoin:miter;stroke-miterlimit:4;stroke-dasharray:none;stroke-opacity:1"
                     id="path778" />
                </g>
                <g
                   transform="translate(145.523,217.04)"
                   id="g784">
                  <path
                     d="M 0,0 3.856,10.488 7.715,0 C 5.438,1.676 2.321,1.664 0,0"
                     style="fill:#000000;fill-opacity:1;fill-rule:evenodd;stroke:none"
                     id="path782" />
                </g>
                <g
                   transform="translate(271.215,60.0981)"
                   id="g788">
                  <path
                     d="M 0,0 H -270.008"
                     style="fill:none;stroke:#000000;stroke-width:1.6;stroke-linecap:butt;stroke-linejoin:miter;stroke-miterlimit:4;stroke-dasharray:none;stroke-opacity:1"
                     id="path786" />
                </g>
                <g
                   transform="translate(262.844,63.97)"
                   id="g792">
                  <path
                     d="M 0,0 10.488,-3.856 0,-7.715 C 1.676,-5.438 1.664,-2.321 0,0"
                     style="fill:#000000;fill-opacity:1;fill-rule:evenodd;stroke:none"
                     id="path790" />
                </g>
                <g
                   transform="translate(61.207,12.8021)"
                   id="g796">
                  <path
                     d="M 0,0 V 43.835"
                     style="fill:none;stroke:#000000;stroke-width:0.8;stroke-linecap:butt;stroke-linejoin:miter;stroke-miterlimit:4;stroke-dasharray:2.4, 2.4;stroke-dashoffset:0;stroke-opacity:1"
                     id="path794" />
                </g>
                <g
                   transform="translate(1.207,37.5981)"
                   id="g800">
                  <path
                     d="m 0,0 h 60.309 c 15.183,0 31.527,8.711 42.714,21.864 27.442,32.258 39.93,91.246 45.165,114.062 7.652,33.356 0,35.434 109.523,35.121"
                     style="fill:none;stroke:#000000;stroke-width:1.6;stroke-linecap:butt;stroke-linejoin:miter;stroke-miterlimit:4;stroke-dasharray:none;stroke-opacity:1"
                     id="path798" />
                </g>
                <g
                   transform="translate(156.816,39.235)"
                   id="g804">
                  <path
                     d="m 0,0 -2.437,13.844 h 1.844 l 2,-11.906 6.734,11.906 h 2.047 L 2.172,0 Z"
                     style="fill:#000000;fill-opacity:1;fill-rule:nonzero;stroke:none"
                     id="path802" />
                </g>
                <g
                   transform="translate(168.191,36.38)"
                   id="g808">
                  <path
                     d="M 0,0 V -3.485 H -1.078 V 5.578 H 0 v -1 c 0.227,0.394 0.516,0.687 0.86,0.875 0.34,0.184 0.754,0.281 1.234,0.281 0.801,0 1.453,-0.32 1.953,-0.953 0.496,-0.625 0.75,-1.457 0.75,-2.484 0,-1.032 -0.254,-1.868 -0.75,-2.5 C 3.547,-0.84 2.895,-1.156 2.094,-1.156 1.614,-1.156 1.2,-1.059 0.86,-0.875 0.516,-0.68 0.227,-0.387 0,0 m 3.672,2.297 c 0,0.789 -0.168,1.41 -0.5,1.859 C 2.848,4.601 2.403,4.828 1.844,4.828 1.27,4.828 0.817,4.601 0.485,4.156 0.161,3.707 0,3.086 0,2.297 0,1.504 0.161,0.879 0.485,0.422 0.817,-0.028 1.27,-0.25 1.844,-0.25 c 0.559,0 1.004,0.222 1.328,0.672 0.332,0.457 0.5,1.082 0.5,1.875"
                     style="fill:#000000;fill-opacity:1;fill-rule:nonzero;stroke:none"
                     id="path806" />
                </g>
                <g
                   transform="translate(248.93,50.661)"
                   id="g812">
                  <path
                     d="M 0,0 H 1.89 L 0.25,-8.406 C 0.187,-8.781 0.136,-9.098 0.109,-9.344 0.078,-9.586 0.062,-9.801 0.062,-9.984 c 0,-0.856 0.238,-1.508 0.719,-1.953 0.477,-0.438 1.176,-0.657 2.094,-0.657 1.195,0 2.129,0.328 2.797,0.985 0.664,0.652 1.14,1.722 1.421,3.203 L 8.718,0 h 1.891 L 8.937,-8.641 c -0.367,-1.867 -1.058,-3.246 -2.078,-4.14 -1.023,-0.887 -2.418,-1.328 -4.187,-1.328 -1.387,0 -2.489,0.343 -3.297,1.031 -0.805,0.695 -1.203,1.644 -1.203,2.844 0,0.215 0.015,0.457 0.046,0.718 0.028,0.27 0.079,0.563 0.141,0.875 z"
                     style="fill:#000000;fill-opacity:1;fill-rule:nonzero;stroke:none"
                     id="path810" />
                </g>
                <g
                   transform="translate(265.367,39.352)"
                   id="g816">
                  <path
                     d="m 0,0 v -1.031 c -0.305,0.153 -0.621,0.27 -0.953,0.344 -0.324,0.082 -0.664,0.125 -1.016,0.125 -0.531,0 -0.933,-0.086 -1.203,-0.25 -0.273,-0.156 -0.406,-0.402 -0.406,-0.734 0,-0.25 0.094,-0.45 0.281,-0.594 0.196,-0.137 0.586,-0.27 1.172,-0.391 l 0.36,-0.094 c 0.769,-0.156 1.316,-0.386 1.64,-0.687 0.32,-0.305 0.485,-0.723 0.485,-1.25 0,-0.617 -0.247,-1.102 -0.735,-1.453 -0.48,-0.356 -1.144,-0.531 -1.984,-0.531 -0.356,0 -0.727,0.039 -1.11,0.109 -0.375,0.062 -0.773,0.16 -1.187,0.297 v 1.125 c 0.394,-0.211 0.785,-0.367 1.172,-0.469 0.383,-0.105 0.769,-0.156 1.156,-0.156 0.496,0 0.883,0.082 1.156,0.25 0.278,0.176 0.422,0.426 0.422,0.75 0,0.289 -0.101,0.515 -0.297,0.672 -0.199,0.152 -0.632,0.304 -1.297,0.453 l -0.375,0.078 c -0.668,0.144 -1.152,0.363 -1.453,0.656 -0.293,0.289 -0.437,0.688 -0.437,1.188 0,0.621 0.219,1.101 0.656,1.437 0.434,0.332 1.055,0.5 1.859,0.5 0.395,0 0.77,-0.035 1.125,-0.094 C -0.617,0.196 -0.293,0.114 0,0"
                     style="fill:#000000;fill-opacity:1;fill-rule:nonzero;stroke:none"
                     id="path814" />
                </g>
                <g
                   transform="translate(133.219,223.626)"
                   id="g820">
                  <path
                     d="M 0,0 H 1.703 L 1.281,-2.156 H -0.422 Z M -0.781,-4.047 H 0.922 L -1.11,-14.438 h -1.703 z"
                     style="fill:#000000;fill-opacity:1;fill-rule:nonzero;stroke:none"
                     id="path818" />
                </g>
                <g
                   transform="translate(141.059,211.724)"
                   id="g824">
                  <path
                     d="m 0,0 -0.204,-1.032 c -0.281,0.153 -0.585,0.27 -0.906,0.344 -0.312,0.082 -0.637,0.125 -0.969,0.125 -0.574,0 -1.023,-0.102 -1.343,-0.297 -0.325,-0.187 -0.485,-0.449 -0.485,-0.781 0,-0.387 0.375,-0.684 1.125,-0.891 0.059,-0.011 0.11,-0.023 0.141,-0.031 l 0.344,-0.109 c 0.715,-0.2 1.195,-0.41 1.437,-0.625 0.239,-0.219 0.36,-0.52 0.36,-0.891 0,-0.699 -0.278,-1.269 -0.829,-1.703 -0.554,-0.438 -1.277,-0.656 -2.171,-0.656 -0.356,0 -0.727,0.039 -1.11,0.109 -0.375,0.063 -0.793,0.16 -1.25,0.297 l 0.203,1.125 c 0.395,-0.211 0.786,-0.367 1.172,-0.469 0.383,-0.105 0.75,-0.156 1.094,-0.156 0.527,0 0.957,0.109 1.281,0.328 0.332,0.227 0.5,0.52 0.5,0.875 0,0.371 -0.433,0.676 -1.297,0.906 l -0.109,0.032 -0.375,0.093 c -0.543,0.145 -0.945,0.332 -1.203,0.563 -0.25,0.238 -0.375,0.539 -0.375,0.906 0,0.695 0.258,1.25 0.781,1.656 0.527,0.414 1.25,0.625 2.156,0.625 C -1.68,0.343 -1.336,0.308 -1,0.25 -0.661,0.195 -0.325,0.113 0,0"
                     style="fill:#000000;fill-opacity:1;fill-rule:nonzero;stroke:none"
                     id="path822" />
                </g>
                <g
                   transform="translate(200.48,13.052)"
                   id="g828">
                  <path
                     d="m 0,0 -0.375,-1.969 c -0.593,0.59 -1.226,1.035 -1.89,1.328 -0.668,0.289 -1.387,0.438 -2.156,0.438 -1.063,0 -1.997,-0.258 -2.797,-0.766 -0.805,-0.5 -1.492,-1.274 -2.063,-2.313 -0.375,-0.668 -0.664,-1.378 -0.859,-2.125 -0.188,-0.742 -0.281,-1.492 -0.281,-2.25 0,-1.261 0.32,-2.226 0.968,-2.89 0.653,-0.656 1.602,-0.985 2.844,-0.985 0.863,0 1.691,0.133 2.484,0.407 0.79,0.277 1.563,0.695 2.313,1.25 l -0.438,-2.219 c -0.742,-0.313 -1.488,-0.551 -2.234,-0.703 -0.75,-0.164 -1.508,-0.25 -2.266,-0.25 -1.773,0 -3.16,0.476 -4.156,1.437 -1,0.965 -1.5,2.313 -1.5,4.032 0,1.101 0.188,2.187 0.563,3.25 0.383,1.058 0.929,2.031 1.64,2.906 0.758,0.933 1.625,1.629 2.594,2.078 0.965,0.445 2.094,0.672 3.375,0.672 0.789,0 1.539,-0.117 2.25,-0.344 C -1.277,0.765 -0.617,0.433 0,0"
                     style="fill:#000000;fill-opacity:1;fill-rule:nonzero;stroke:none"
                     id="path826" />
                </g>
                <g
                   transform="translate(100.441,13.845)"
                   id="g832">
                  <path
                     d="m 0,0 h 4.797 c 1.301,0 2.27,-0.243 2.907,-0.719 0.644,-0.481 0.968,-1.207 0.968,-2.172 0,-0.898 -0.277,-1.668 -0.828,-2.312 -0.555,-0.649 -1.277,-1.04 -2.172,-1.172 0.758,-0.18 1.332,-0.512 1.719,-1 0.383,-0.481 0.578,-1.133 0.578,-1.953 0,-1.387 -0.519,-2.489 -1.547,-3.297 -1.031,-0.813 -2.441,-1.219 -4.218,-1.219 h -4.891 z m 0.469,-7.235 -0.984,-5.062 H 2.5 c 1.121,0 1.993,0.254 2.61,0.765 0.613,0.52 0.922,1.254 0.922,2.204 0,0.726 -0.207,1.257 -0.61,1.593 -0.406,0.332 -1.058,0.5 -1.953,0.5 z M 1.563,-1.532 0.75,-5.703 h 2.797 c 0.989,0 1.766,0.21 2.328,0.64 0.559,0.434 0.844,1.035 0.844,1.797 0,0.602 -0.195,1.039 -0.578,1.313 -0.375,0.277 -0.977,0.421 -1.797,0.421 z"
                     style="fill:#000000;fill-opacity:1;fill-rule:nonzero;stroke:none"
                     id="path830" />
                </g>
                <g
                   transform="translate(28.32,13.845)"
                   id="g836">
                  <path
                     d="M 0,0 H 2.125 L 4.688,-13.844 H 2.735 l -0.578,3.547 h -6.235 l -1.953,-3.547 h -1.984 z m 0.672,-1.844 -3.89,-6.891 h 5.093 z"
                     style="fill:#000000;fill-opacity:1;fill-rule:nonzero;stroke:none"
                     id="path834" />
                </g>
                <g
                   transform="translate(103.801,36.642)"
                   id="g840">
                  <path
                     d="m 0,0 -2.438,13.843 h 1.844 l 2,-11.906 6.734,11.906 h 2.047 L 2.172,0 Z"
                     style="fill:#000000;fill-opacity:1;fill-rule:nonzero;stroke:none"
                     id="path838" />
                </g>
                <g
                   transform="translate(116.441,41.927)"
                   id="g844">
                  <path
                     d="M 0,0 H 3 V -9.125 H 1.907 v 8.218 h -1.922 c -0.387,0 -0.66,-0.082 -0.813,-0.234 -0.148,-0.156 -0.218,-0.441 -0.218,-0.844 v -0.578 h 1.781 v -0.844 h -1.781 v -5.718 h -1.079 v 5.718 h -1.031 v 0.844 h 1.031 v 0.453 c 0,0.727 0.164,1.258 0.5,1.594 C -1.285,-0.176 -0.742,0 0,0"
                     style="fill:#000000;fill-opacity:1;fill-rule:nonzero;stroke:none"
                     id="path842" />
                </g>
                <g
                   transform="translate(147.059,27.8411)"
                   id="g848">
                  <path
                     d="M 0,0 H -83.313"
                     style="fill:none;stroke:#000000;stroke-width:0.8;stroke-linecap:butt;stroke-linejoin:miter;stroke-miterlimit:4;stroke-dasharray:none;stroke-opacity:1"
                     id="path846" />
                </g>
                <g
                   transform="translate(142.875,29.778)"
                   id="g852">
                  <path
                     d="M 0,0 5.242,-1.929 0,-3.855 C 0.836,-2.719 0.832,-1.16 0,0"
                     style="fill:#000000;fill-opacity:1;fill-rule:evenodd;stroke:none"
                     id="path850" />
                </g>
                <g
                   transform="translate(67.93,25.907)"
                   id="g856">
                  <path
                     d="M 0,0 -5.242,1.926 0,3.856 C -0.836,2.715 -0.832,1.16 0,0"
                     style="fill:#000000;fill-opacity:1;fill-rule:evenodd;stroke:none"
                     id="path854" />
                </g>
                <g
                   transform="translate(151.719,27.8411)"
                   id="g860">
                  <path
                     d="M 0,0 H 84.914"
                     style="fill:none;stroke:#000000;stroke-width:0.8;stroke-linecap:butt;stroke-linejoin:miter;stroke-miterlimit:4;stroke-dasharray:none;stroke-opacity:1"
                     id="path858" />
                </g>
                <g
                   transform="translate(232.445,29.778)"
                   id="g864">
                  <path
                     d="M 0,0 5.246,-1.929 0,-3.855 C 0.84,-2.719 0.836,-1.16 0,0"
                     style="fill:#000000;fill-opacity:1;fill-rule:evenodd;stroke:none"
                     id="path862" />
                </g>
                <g
                   transform="translate(59.086,27.8481)"
                   id="g868">
                  <path
                     d="M 0,0 H -57.879"
                     style="fill:none;stroke:#000000;stroke-width:0.8;stroke-linecap:butt;stroke-linejoin:miter;stroke-miterlimit:4;stroke-dasharray:none;stroke-opacity:1"
                     id="path866" />
                </g>
                <g
                   transform="translate(5.395,25.915)"
                   id="g872">
                  <path
                     d="M 0,0 -5.247,1.926 0,3.855 C -0.84,2.715 -0.836,1.16 0,0"
                     style="fill:#000000;fill-opacity:1;fill-rule:evenodd;stroke:none"
                     id="path870" />
                </g>
              </g>
            </g>
          </g>
        </g>
      </g>
    </g>
  </g>
</svg>
